<svg width="270" height="175" viewBox="0 0 270 175" fill="none" xmlns="http://www.w3.org/2000/svg">
<rect x="4" y="1" width="265" height="55" fill="#CCFFCB"/>
<rect x="4" y="56" width="265" height="60" fill="#FFF7CB"/>
<rect x="4" y="116" width="265" height="55" fill="#FFCBCB"/>
<path d="M104 171V1" stroke="#FF0606" stroke-dasharray="5 5"/>
<path d="M169 171V1" stroke="#FF0606" stroke-dasharray="5 5"/>
<path d="M4.35355 0.646447C4.15829 0.451184 3.84171 0.451184 3.64645 0.646447L0.464466 3.82843C0.269204 4.02369 0.269204 4.34027 0.464466 4.53553C0.659728 4.7308 0.976311 4.7308 1.17157 4.53553L4 1.70711L6.82843 4.53553C7.02369 4.7308 7.34027 4.7308 7.53553 4.53553C7.7308 4.34027 7.7308 4.02369 7.53553 3.82843L4.35355 0.646447ZM4 170.5H3.5V171H4V170.5ZM269.354 170.854C269.549 170.658 269.549 170.342 269.354 170.146L266.172 166.964C265.976 166.769 265.66 166.769 265.464 166.964C265.269 167.16 265.269 167.476 265.464 167.672L268.293 170.5L265.464 173.328C265.269 173.524 265.269 173.84 265.464 174.036C265.66 174.231 265.976 174.231 266.172 174.036L269.354 170.854ZM3.5 1V170.5H4.5V1H3.5ZM4 171H269V170H4V171Z" fill="black"/>
</svg>
