<svg width="465" height="373" viewBox="0 0 465 373" fill="none" xmlns="http://www.w3.org/2000/svg">
<mask id="mask0_12_127" style="mask-type:alpha" maskUnits="userSpaceOnUse" x="9" y="34" width="420" height="330">
<rect x="9" y="34" width="420" height="330" fill="#D9D9D9"/>
</mask>
<g mask="url(#mask0_12_127)">
<rect x="9" y="34" width="420" height="110" fill="#CCFFCB"/>
<rect x="9" y="144" width="420" height="110" fill="#FFF7CB"/>
<rect x="9" y="254" width="420" height="110" fill="#FFCBCB"/>
<mask id="mask1_12_127" style="mask-type:alpha" maskUnits="userSpaceOnUse" x="311" y="34" width="118" height="330">
<rect x="311" y="34" width="118" height="330" fill="#D9D9D9"/>
</mask>
<g mask="url(#mask1_12_127)">
<path d="M301 47L431 -23" stroke="url(#paint0_linear_12_127)" stroke-width="8"/>
<path d="M301 67L431 -3" stroke="url(#paint1_linear_12_127)" stroke-width="8"/>
<path d="M301 87L431 17" stroke="url(#paint2_linear_12_127)" stroke-width="8"/>
<path d="M301 107L431 37" stroke="url(#paint3_linear_12_127)" stroke-width="8"/>
<path d="M301 127L431 57" stroke="url(#paint4_linear_12_127)" stroke-width="8"/>
<path d="M301 147L431 77" stroke="url(#paint5_linear_12_127)" stroke-width="8"/>
<path d="M301 167L431 97" stroke="url(#paint6_linear_12_127)" stroke-width="8"/>
<path d="M301 187L431 117" stroke="url(#paint7_linear_12_127)" stroke-width="8"/>
<path d="M301 207L431 137" stroke="url(#paint8_linear_12_127)" stroke-width="8"/>
<path d="M301 227L431 157" stroke="url(#paint9_linear_12_127)" stroke-width="8"/>
<path d="M301 247L431 177" stroke="url(#paint10_linear_12_127)" stroke-width="8"/>
<path d="M301 267L431 197" stroke="url(#paint11_linear_12_127)" stroke-width="8"/>
<path d="M301 287L431 217" stroke="url(#paint12_linear_12_127)" stroke-width="8"/>
<path d="M301 307L431 237" stroke="url(#paint13_linear_12_127)" stroke-width="8"/>
<path d="M301 327L431 257" stroke="url(#paint14_linear_12_127)" stroke-width="8"/>
<path d="M301 347L431 277" stroke="url(#paint15_linear_12_127)" stroke-width="8"/>
<path d="M301 367L431 297" stroke="url(#paint16_linear_12_127)" stroke-width="8"/>
<path d="M301 387L431 317" stroke="url(#paint17_linear_12_127)" stroke-width="8"/>
<path d="M301 407L431 337" stroke="url(#paint18_linear_12_127)" stroke-width="8"/>
</g>
<mask id="mask2_12_127" style="mask-type:alpha" maskUnits="userSpaceOnUse" x="8" y="34" width="118" height="330">
<rect width="118" height="330" transform="matrix(-1 0 0 1 126 34)" fill="#D9D9D9"/>
</mask>
<g mask="url(#mask2_12_127)">
<path d="M136 47L6 -23" stroke="url(#paint19_linear_12_127)" stroke-width="8"/>
<path d="M136 67L6 -3" stroke="url(#paint20_linear_12_127)" stroke-width="8"/>
<path d="M136 87L6 17" stroke="url(#paint21_linear_12_127)" stroke-width="8"/>
<path d="M136 107L6 37" stroke="url(#paint22_linear_12_127)" stroke-width="8"/>
<path d="M136 127L6 57" stroke="url(#paint23_linear_12_127)" stroke-width="8"/>
<path d="M136 147L6 77" stroke="url(#paint24_linear_12_127)" stroke-width="8"/>
<path d="M136 167L6 97" stroke="url(#paint25_linear_12_127)" stroke-width="8"/>
<path d="M136 187L6 117" stroke="url(#paint26_linear_12_127)" stroke-width="8"/>
<path d="M136 207L6 137" stroke="url(#paint27_linear_12_127)" stroke-width="8"/>
<path d="M136 227L6 157" stroke="url(#paint28_linear_12_127)" stroke-width="8"/>
<path d="M136 247L6 177" stroke="url(#paint29_linear_12_127)" stroke-width="8"/>
<path d="M136 267L6 197" stroke="url(#paint30_linear_12_127)" stroke-width="8"/>
<path d="M136 287L6 217" stroke="url(#paint31_linear_12_127)" stroke-width="8"/>
<path d="M136 307L6 237" stroke="url(#paint32_linear_12_127)" stroke-width="8"/>
<path d="M136 327L6 257" stroke="url(#paint33_linear_12_127)" stroke-width="8"/>
<path d="M136 347L6 277" stroke="url(#paint34_linear_12_127)" stroke-width="8"/>
<path d="M136 367L6 297" stroke="url(#paint35_linear_12_127)" stroke-width="8"/>
<path d="M136 387L6 317" stroke="url(#paint36_linear_12_127)" stroke-width="8"/>
<path d="M136 407L6 337" stroke="url(#paint37_linear_12_127)" stroke-width="8"/>
</g>
</g>
<path d="M9 4V364H459" stroke="#737272" stroke-width="4"/>
<path d="M455.071 371.142L462.142 364.071L455.071 357" stroke="#737272" stroke-width="4"/>
<path d="M16.1422 10.0711L9.07108 3.00001L2.00002 10.0711" stroke="#737272" stroke-width="4"/>
<defs>
<linearGradient id="paint0_linear_12_127" x1="366" y1="-23" x2="366" y2="47" gradientUnits="userSpaceOnUse">
<stop stop-color="#FF8B8B"/>
<stop offset="1" stop-color="#FF8B8B" stop-opacity="0"/>
</linearGradient>
<linearGradient id="paint1_linear_12_127" x1="366" y1="-3" x2="366" y2="67" gradientUnits="userSpaceOnUse">
<stop stop-color="#FF8B8B"/>
<stop offset="1" stop-color="#FF8B8B" stop-opacity="0"/>
</linearGradient>
<linearGradient id="paint2_linear_12_127" x1="366" y1="17" x2="366" y2="87" gradientUnits="userSpaceOnUse">
<stop stop-color="#FF8B8B"/>
<stop offset="1" stop-color="#FF8B8B" stop-opacity="0"/>
</linearGradient>
<linearGradient id="paint3_linear_12_127" x1="366" y1="37" x2="366" y2="107" gradientUnits="userSpaceOnUse">
<stop stop-color="#FF8B8B"/>
<stop offset="1" stop-color="#FF8B8B" stop-opacity="0"/>
</linearGradient>
<linearGradient id="paint4_linear_12_127" x1="366" y1="57" x2="366" y2="127" gradientUnits="userSpaceOnUse">
<stop stop-color="#FF8B8B"/>
<stop offset="1" stop-color="#FF8B8B" stop-opacity="0"/>
</linearGradient>
<linearGradient id="paint5_linear_12_127" x1="366" y1="77" x2="366" y2="147" gradientUnits="userSpaceOnUse">
<stop stop-color="#FF8B8B"/>
<stop offset="1" stop-color="#FF8B8B" stop-opacity="0"/>
</linearGradient>
<linearGradient id="paint6_linear_12_127" x1="366" y1="97" x2="366" y2="167" gradientUnits="userSpaceOnUse">
<stop stop-color="#FF8B8B"/>
<stop offset="1" stop-color="#FF8B8B" stop-opacity="0"/>
</linearGradient>
<linearGradient id="paint7_linear_12_127" x1="366" y1="117" x2="366" y2="187" gradientUnits="userSpaceOnUse">
<stop stop-color="#FF8B8B"/>
<stop offset="1" stop-color="#FF8B8B" stop-opacity="0"/>
</linearGradient>
<linearGradient id="paint8_linear_12_127" x1="366" y1="137" x2="366" y2="207" gradientUnits="userSpaceOnUse">
<stop stop-color="#FF8B8B"/>
<stop offset="1" stop-color="#FF8B8B" stop-opacity="0"/>
</linearGradient>
<linearGradient id="paint9_linear_12_127" x1="366" y1="157" x2="366" y2="227" gradientUnits="userSpaceOnUse">
<stop stop-color="#FF8B8B"/>
<stop offset="1" stop-color="#FF8B8B" stop-opacity="0"/>
</linearGradient>
<linearGradient id="paint10_linear_12_127" x1="366" y1="177" x2="366" y2="247" gradientUnits="userSpaceOnUse">
<stop stop-color="#FF8B8B"/>
<stop offset="1" stop-color="#FF8B8B" stop-opacity="0"/>
</linearGradient>
<linearGradient id="paint11_linear_12_127" x1="366" y1="197" x2="366" y2="267" gradientUnits="userSpaceOnUse">
<stop stop-color="#FF8B8B"/>
<stop offset="1" stop-color="#FF8B8B" stop-opacity="0"/>
</linearGradient>
<linearGradient id="paint12_linear_12_127" x1="366" y1="217" x2="366" y2="287" gradientUnits="userSpaceOnUse">
<stop stop-color="#FF8B8B"/>
<stop offset="1" stop-color="#FF8B8B" stop-opacity="0"/>
</linearGradient>
<linearGradient id="paint13_linear_12_127" x1="366" y1="237" x2="366" y2="307" gradientUnits="userSpaceOnUse">
<stop stop-color="#FF8B8B"/>
<stop offset="1" stop-color="#FF8B8B" stop-opacity="0"/>
</linearGradient>
<linearGradient id="paint14_linear_12_127" x1="366" y1="257" x2="366" y2="327" gradientUnits="userSpaceOnUse">
<stop stop-color="#FF8B8B"/>
<stop offset="1" stop-color="#FF8B8B" stop-opacity="0"/>
</linearGradient>
<linearGradient id="paint15_linear_12_127" x1="366" y1="277" x2="366" y2="347" gradientUnits="userSpaceOnUse">
<stop stop-color="#FF8B8B"/>
<stop offset="1" stop-color="#FF8B8B" stop-opacity="0"/>
</linearGradient>
<linearGradient id="paint16_linear_12_127" x1="366" y1="297" x2="366" y2="367" gradientUnits="userSpaceOnUse">
<stop stop-color="#FF8B8B"/>
<stop offset="1" stop-color="#FF8B8B" stop-opacity="0"/>
</linearGradient>
<linearGradient id="paint17_linear_12_127" x1="366" y1="317" x2="366" y2="387" gradientUnits="userSpaceOnUse">
<stop stop-color="#FF8B8B"/>
<stop offset="1" stop-color="#FF8B8B" stop-opacity="0"/>
</linearGradient>
<linearGradient id="paint18_linear_12_127" x1="366" y1="337" x2="366" y2="407" gradientUnits="userSpaceOnUse">
<stop stop-color="#FF8B8B"/>
<stop offset="1" stop-color="#FF8B8B" stop-opacity="0"/>
</linearGradient>
<linearGradient id="paint19_linear_12_127" x1="71" y1="-23" x2="71" y2="47" gradientUnits="userSpaceOnUse">
<stop stop-color="#FF8B8B"/>
<stop offset="1" stop-color="#FF8B8B" stop-opacity="0"/>
</linearGradient>
<linearGradient id="paint20_linear_12_127" x1="71" y1="-3" x2="71" y2="67" gradientUnits="userSpaceOnUse">
<stop stop-color="#FF8B8B"/>
<stop offset="1" stop-color="#FF8B8B" stop-opacity="0"/>
</linearGradient>
<linearGradient id="paint21_linear_12_127" x1="71" y1="17" x2="71" y2="87" gradientUnits="userSpaceOnUse">
<stop stop-color="#FF8B8B"/>
<stop offset="1" stop-color="#FF8B8B" stop-opacity="0"/>
</linearGradient>
<linearGradient id="paint22_linear_12_127" x1="71" y1="37" x2="71" y2="107" gradientUnits="userSpaceOnUse">
<stop stop-color="#FF8B8B"/>
<stop offset="1" stop-color="#FF8B8B" stop-opacity="0"/>
</linearGradient>
<linearGradient id="paint23_linear_12_127" x1="71" y1="57" x2="71" y2="127" gradientUnits="userSpaceOnUse">
<stop stop-color="#FF8B8B"/>
<stop offset="1" stop-color="#FF8B8B" stop-opacity="0"/>
</linearGradient>
<linearGradient id="paint24_linear_12_127" x1="71" y1="77" x2="71" y2="147" gradientUnits="userSpaceOnUse">
<stop stop-color="#FF8B8B"/>
<stop offset="1" stop-color="#FF8B8B" stop-opacity="0"/>
</linearGradient>
<linearGradient id="paint25_linear_12_127" x1="71" y1="97" x2="71" y2="167" gradientUnits="userSpaceOnUse">
<stop stop-color="#FF8B8B"/>
<stop offset="1" stop-color="#FF8B8B" stop-opacity="0"/>
</linearGradient>
<linearGradient id="paint26_linear_12_127" x1="71" y1="117" x2="71" y2="187" gradientUnits="userSpaceOnUse">
<stop stop-color="#FF8B8B"/>
<stop offset="1" stop-color="#FF8B8B" stop-opacity="0"/>
</linearGradient>
<linearGradient id="paint27_linear_12_127" x1="71" y1="137" x2="71" y2="207" gradientUnits="userSpaceOnUse">
<stop stop-color="#FF8B8B"/>
<stop offset="1" stop-color="#FF8B8B" stop-opacity="0"/>
</linearGradient>
<linearGradient id="paint28_linear_12_127" x1="71" y1="157" x2="71" y2="227" gradientUnits="userSpaceOnUse">
<stop stop-color="#FF8B8B"/>
<stop offset="1" stop-color="#FF8B8B" stop-opacity="0"/>
</linearGradient>
<linearGradient id="paint29_linear_12_127" x1="71" y1="177" x2="71" y2="247" gradientUnits="userSpaceOnUse">
<stop stop-color="#FF8B8B"/>
<stop offset="1" stop-color="#FF8B8B" stop-opacity="0"/>
</linearGradient>
<linearGradient id="paint30_linear_12_127" x1="71" y1="197" x2="71" y2="267" gradientUnits="userSpaceOnUse">
<stop stop-color="#FF8B8B"/>
<stop offset="1" stop-color="#FF8B8B" stop-opacity="0"/>
</linearGradient>
<linearGradient id="paint31_linear_12_127" x1="71" y1="217" x2="71" y2="287" gradientUnits="userSpaceOnUse">
<stop stop-color="#FF8B8B"/>
<stop offset="1" stop-color="#FF8B8B" stop-opacity="0"/>
</linearGradient>
<linearGradient id="paint32_linear_12_127" x1="71" y1="237" x2="71" y2="307" gradientUnits="userSpaceOnUse">
<stop stop-color="#FF8B8B"/>
<stop offset="1" stop-color="#FF8B8B" stop-opacity="0"/>
</linearGradient>
<linearGradient id="paint33_linear_12_127" x1="71" y1="257" x2="71" y2="327" gradientUnits="userSpaceOnUse">
<stop stop-color="#FF8B8B"/>
<stop offset="1" stop-color="#FF8B8B" stop-opacity="0"/>
</linearGradient>
<linearGradient id="paint34_linear_12_127" x1="71" y1="277" x2="71" y2="347" gradientUnits="userSpaceOnUse">
<stop stop-color="#FF8B8B"/>
<stop offset="1" stop-color="#FF8B8B" stop-opacity="0"/>
</linearGradient>
<linearGradient id="paint35_linear_12_127" x1="71" y1="297" x2="71" y2="367" gradientUnits="userSpaceOnUse">
<stop stop-color="#FF8B8B"/>
<stop offset="1" stop-color="#FF8B8B" stop-opacity="0"/>
</linearGradient>
<linearGradient id="paint36_linear_12_127" x1="71" y1="317" x2="71" y2="387" gradientUnits="userSpaceOnUse">
<stop stop-color="#FF8B8B"/>
<stop offset="1" stop-color="#FF8B8B" stop-opacity="0"/>
</linearGradient>
<linearGradient id="paint37_linear_12_127" x1="71" y1="337" x2="71" y2="407" gradientUnits="userSpaceOnUse">
<stop stop-color="#FF8B8B"/>
<stop offset="1" stop-color="#FF8B8B" stop-opacity="0"/>
</linearGradient>
</defs>
</svg>
